<?xml version="1.0" encoding="UTF-8"?>
<svg width="752pt" height="752pt" version="1.1" viewBox="0 0 752 752" xmlns="http://www.w3.org/2000/svg">
 <g>
  <path d="m443.72 539.39c-24.625 0-48.777-9.4727-67.723-27.941l-37.414-37.414c-7.5781-7.5781-7.5781-19.418 0-26.992 7.5781-7.5781 19.418-7.5781 26.992 0l37.414 37.414c22.73 22.73 59.199 22.73 81.457 0 22.73-22.73 22.73-59.199 0-81.457l-37.414-37.414c-7.5781-7.5781-7.5781-19.418 0-26.992 7.5781-7.5781 19.418-7.5781 26.992 0l37.414 37.414c37.414 37.414 37.414 98.031 0 134.97-18.938 18.941-43.09 28.414-67.719 28.414z"/>
  <path d="m291.23 418.62c-4.7344 0-9.4727-1.8945-13.262-5.6836l-37.41-36.941c-37.414-37.414-37.414-98.031 0-134.97 37.414-37.414 98.031-37.414 134.97 0l37.414 37.414c7.5781 7.5781 7.5781 19.418 0 26.992-7.5781 7.5781-19.418 7.5781-26.992 0l-37.414-37.414c-10.891-10.891-25.574-17.051-40.727-17.051-15.629 0-29.836 6.1562-40.727 17.051-22.73 22.73-22.73 59.199 0 81.457l37.414 37.414c7.5781 7.5781 7.5781 19.418 0 26.992-3.3203 2.8438-8.5312 4.7383-13.266 4.7383z"/>
  <path d="m406.31 425.25c-4.7344 0-9.4727-1.8945-13.262-5.6836l-61.094-60.617c-7.5781-7.5781-7.5781-19.418 0-26.992 7.5781-7.5781 19.418-7.5781 26.992 0l61.094 61.094c7.5781 7.5781 7.5781 19.418 0 26.992-3.7891 3.3125-8.5234 5.207-13.73 5.207z"/>
 </g>
</svg>
